# xmcd CD database file
#
# Track frame offsets:
#	150
#	13286
#	24553
#	42025
#	51630
#	68843
#	80913
#	93664
#	111330
#	118602
#	130980
#	145459
#	165514
#	183109
#	199367
#
# Disc length: 2847 seconds
#
# Revision: 0
# Processed by: cddbd v1.5.2PL0 Copyright (c) Steve Scherf et al.
# Submitted via: CDex 1.70beta2
#
DISCID=e00b1d0f
DTITLE=Country Wolfgang - Best of
DYEAR=2012
DGENRE=Country
TTITLE0=Take it easy altes Haus
TTITLE1=Ring of fire
TTITLE2=Komm unter meine Decke
TTITLE3=Heartbeat
TTITLE4=Walk of life
TTITLE5=Hello Mary Lou
TTITLE6=Country Roads
TTITLE7=Mit einer starken Frau
TTITLE8=I walk the line
TTITLE9=Ihr Leben, das ist der Highway
TTITLE10=Junger Adler
TTITLE11=Wohin der Wind dich treibt
TTITLE12=Der Sommer, als Jenny sich verliebte
TTITLE13=Ein Stern, der deinen Namen trägt
TTITLE14=Rut sin de Ruse
EXTD=YEAR: 2012
EXTT0=
EXTT1=
EXTT2=
EXTT3=
EXTT4=
EXTT5=
EXTT6=
EXTT7=
EXTT8=
EXTT9=
EXTT10=
EXTT11=
EXTT12=
EXTT13=
EXTT14=
PLAYORDER=
